# xmcd CD database file
#
# Track frame offsets:
#	150
#	17682
#	33602
#	53397
#	70812
#	92267
#	109420
#	127660
#	146282
#	166722
#
# Disc length: 2499 seconds
#
# Revision: 4
# Processed by: cddbd v1.5.1PL0 Copyright (c) Steve Scherf et al.
# Submitted via: CDex 1.51
#
DISCID=6f09c10a
DTITLE=Beverly Craven - Love Scenes
DYEAR=1993
DGENRE=New Age
TTITLE0=Love Scenes
TTITLE1=Love Is The Light
TTITLE2=hopH
TTITLE3=Look No Further
TTITLE4=Mollie's Song
TTITLE5=On Those Days
TTITLE6=Feels Like The First Time
TTITLE7=Blind Faith
TTITLE8=Lost Without You
TTITLE9=The Winner Takes It All
EXTD=YEAR: 1993
EXTT0=
EXTT1=
EXTT2=
EXTT3=
EXTT4=
EXTT5=
EXTT6=
EXTT7=
EXTT8=
EXTT9=Recorded for the 20th anniversary ABBA tribute album.\n
PLAYORDER=
